<mxfile host="app.diagrams.net" modified="2023-10-22T21:55:12.129Z" agent="Mozilla/5.0 (Windows NT 10.0; Win64; x64) AppleWebKit/537.36 (KHTML, like Gecko) Chrome/118.0.0.0 Safari/537.36" etag="ZtzJfyuikfGGNowvD9mc" version="21.3.4" type="device">
  <diagram name="第 1 页" id="1pliiiRoI3alDtRe1pW8">
    <mxGraphModel dx="2607" dy="1364" grid="1" gridSize="10" guides="1" tooltips="1" connect="1" arrows="1" fold="1" page="1" pageScale="1" pageWidth="1169" pageHeight="827" math="0" shadow="0">
      <root>
        <mxCell id="0" />
        <mxCell id="1" parent="0" />
        <mxCell id="07pAsyxVvloNR7hStDU4-1" value="Compute Shader" style="rounded=0;whiteSpace=wrap;html=1;fillColor=#dae8fc;strokeColor=#6c8ebf;" vertex="1" parent="1">
          <mxGeometry x="220" y="130" width="120" height="60" as="geometry" />
        </mxCell>
        <mxCell id="07pAsyxVvloNR7hStDU4-2" value="RayTracing Master" style="rounded=0;whiteSpace=wrap;html=1;fillColor=#fff2cc;strokeColor=#d6b656;" vertex="1" parent="1">
          <mxGeometry x="465" y="130" width="120" height="60" as="geometry" />
        </mxCell>
        <mxCell id="07pAsyxVvloNR7hStDU4-5" value="" style="edgeStyle=orthogonalEdgeStyle;rounded=0;orthogonalLoop=1;jettySize=auto;html=1;" edge="1" parent="1" source="07pAsyxVvloNR7hStDU4-3" target="07pAsyxVvloNR7hStDU4-4">
          <mxGeometry relative="1" as="geometry" />
        </mxCell>
        <mxCell id="07pAsyxVvloNR7hStDU4-3" value="RayTracing Object" style="rounded=0;whiteSpace=wrap;html=1;" vertex="1" parent="1">
          <mxGeometry x="830" y="130" width="120" height="60" as="geometry" />
        </mxCell>
        <mxCell id="07pAsyxVvloNR7hStDU4-4" value="Mesh" style="whiteSpace=wrap;html=1;rounded=0;fillColor=#d5e8d4;strokeColor=#82b366;" vertex="1" parent="1">
          <mxGeometry x="830" y="270" width="120" height="60" as="geometry" />
        </mxCell>
        <mxCell id="07pAsyxVvloNR7hStDU4-6" value="Materials" style="whiteSpace=wrap;html=1;rounded=0;fillColor=#f8cecc;strokeColor=#b85450;" vertex="1" parent="1">
          <mxGeometry x="830" y="504" width="120" height="60" as="geometry" />
        </mxCell>
        <mxCell id="07pAsyxVvloNR7hStDU4-50" style="edgeStyle=orthogonalEdgeStyle;rounded=0;orthogonalLoop=1;jettySize=auto;html=1;entryX=1;entryY=0.5;entryDx=0;entryDy=0;" edge="1" parent="1" source="07pAsyxVvloNR7hStDU4-7" target="07pAsyxVvloNR7hStDU4-21">
          <mxGeometry relative="1" as="geometry" />
        </mxCell>
        <mxCell id="07pAsyxVvloNR7hStDU4-7" value="Textures" style="whiteSpace=wrap;html=1;rounded=0;" vertex="1" parent="1">
          <mxGeometry x="700" y="500" width="120" height="30" as="geometry" />
        </mxCell>
        <mxCell id="07pAsyxVvloNR7hStDU4-51" style="edgeStyle=orthogonalEdgeStyle;rounded=0;orthogonalLoop=1;jettySize=auto;html=1;entryX=1;entryY=0.5;entryDx=0;entryDy=0;" edge="1" parent="1" source="07pAsyxVvloNR7hStDU4-8" target="07pAsyxVvloNR7hStDU4-22">
          <mxGeometry relative="1" as="geometry" />
        </mxCell>
        <mxCell id="07pAsyxVvloNR7hStDU4-8" value="Property" style="whiteSpace=wrap;html=1;rounded=0;" vertex="1" parent="1">
          <mxGeometry x="700" y="545.5" width="120" height="30" as="geometry" />
        </mxCell>
        <mxCell id="07pAsyxVvloNR7hStDU4-45" style="edgeStyle=orthogonalEdgeStyle;rounded=0;orthogonalLoop=1;jettySize=auto;html=1;" edge="1" parent="1" source="07pAsyxVvloNR7hStDU4-9">
          <mxGeometry relative="1" as="geometry">
            <mxPoint x="590" y="255" as="targetPoint" />
          </mxGeometry>
        </mxCell>
        <mxCell id="07pAsyxVvloNR7hStDU4-9" value="Vertices: Position" style="whiteSpace=wrap;html=1;rounded=0;" vertex="1" parent="1">
          <mxGeometry x="700" y="240" width="120" height="30" as="geometry" />
        </mxCell>
        <mxCell id="07pAsyxVvloNR7hStDU4-49" style="edgeStyle=orthogonalEdgeStyle;rounded=0;orthogonalLoop=1;jettySize=auto;html=1;" edge="1" parent="1" source="07pAsyxVvloNR7hStDU4-10">
          <mxGeometry relative="1" as="geometry">
            <mxPoint x="590" y="285" as="targetPoint" />
          </mxGeometry>
        </mxCell>
        <mxCell id="07pAsyxVvloNR7hStDU4-10" value="Vertices: UV" style="whiteSpace=wrap;html=1;rounded=0;" vertex="1" parent="1">
          <mxGeometry x="700" y="270" width="120" height="30" as="geometry" />
        </mxCell>
        <mxCell id="07pAsyxVvloNR7hStDU4-46" style="rounded=0;orthogonalLoop=1;jettySize=auto;html=1;entryX=1;entryY=0.5;entryDx=0;entryDy=0;exitX=0;exitY=0.5;exitDx=0;exitDy=0;" edge="1" parent="1" source="07pAsyxVvloNR7hStDU4-11" target="07pAsyxVvloNR7hStDU4-33">
          <mxGeometry relative="1" as="geometry" />
        </mxCell>
        <mxCell id="07pAsyxVvloNR7hStDU4-11" value="Vertices: Normal" style="whiteSpace=wrap;html=1;rounded=0;" vertex="1" parent="1">
          <mxGeometry x="700" y="300" width="120" height="30" as="geometry" />
        </mxCell>
        <mxCell id="07pAsyxVvloNR7hStDU4-48" style="edgeStyle=orthogonalEdgeStyle;rounded=0;orthogonalLoop=1;jettySize=auto;html=1;entryX=1;entryY=0.5;entryDx=0;entryDy=0;" edge="1" parent="1" source="07pAsyxVvloNR7hStDU4-12" target="07pAsyxVvloNR7hStDU4-23">
          <mxGeometry relative="1" as="geometry" />
        </mxCell>
        <mxCell id="07pAsyxVvloNR7hStDU4-12" value="Triangle: indices" style="whiteSpace=wrap;html=1;rounded=0;" vertex="1" parent="1">
          <mxGeometry x="700" y="330" width="120" height="30" as="geometry" />
        </mxCell>
        <mxCell id="07pAsyxVvloNR7hStDU4-15" value="obj info" style="whiteSpace=wrap;html=1;rounded=0;fillColor=#e1d5e7;strokeColor=#9673a6;" vertex="1" parent="1">
          <mxGeometry x="830" y="383.5" width="120" height="60" as="geometry" />
        </mxCell>
        <mxCell id="07pAsyxVvloNR7hStDU4-47" style="edgeStyle=orthogonalEdgeStyle;rounded=0;orthogonalLoop=1;jettySize=auto;html=1;" edge="1" parent="1" source="07pAsyxVvloNR7hStDU4-16" target="07pAsyxVvloNR7hStDU4-20">
          <mxGeometry relative="1" as="geometry" />
        </mxCell>
        <mxCell id="07pAsyxVvloNR7hStDU4-16" value="localToWorldMatrix" style="whiteSpace=wrap;html=1;rounded=0;" vertex="1" parent="1">
          <mxGeometry x="700" y="399" width="120" height="30" as="geometry" />
        </mxCell>
        <mxCell id="07pAsyxVvloNR7hStDU4-36" style="edgeStyle=orthogonalEdgeStyle;rounded=0;orthogonalLoop=1;jettySize=auto;html=1;entryX=1;entryY=0.5;entryDx=0;entryDy=0;" edge="1" parent="1" source="07pAsyxVvloNR7hStDU4-17" target="07pAsyxVvloNR7hStDU4-25">
          <mxGeometry relative="1" as="geometry" />
        </mxCell>
        <mxCell id="07pAsyxVvloNR7hStDU4-17" value="Vertices List" style="whiteSpace=wrap;html=1;rounded=0;fillColor=#fff2cc;strokeColor=#d6b656;" vertex="1" parent="1">
          <mxGeometry x="465" y="240" width="120" height="30" as="geometry" />
        </mxCell>
        <mxCell id="07pAsyxVvloNR7hStDU4-37" style="edgeStyle=orthogonalEdgeStyle;rounded=0;orthogonalLoop=1;jettySize=auto;html=1;entryX=1;entryY=0.5;entryDx=0;entryDy=0;" edge="1" parent="1" source="07pAsyxVvloNR7hStDU4-18" target="07pAsyxVvloNR7hStDU4-26">
          <mxGeometry relative="1" as="geometry" />
        </mxCell>
        <mxCell id="07pAsyxVvloNR7hStDU4-18" value="UV List" style="whiteSpace=wrap;html=1;rounded=0;fillColor=#fff2cc;strokeColor=#d6b656;" vertex="1" parent="1">
          <mxGeometry x="465" y="270" width="120" height="30" as="geometry" />
        </mxCell>
        <mxCell id="07pAsyxVvloNR7hStDU4-38" style="edgeStyle=orthogonalEdgeStyle;rounded=0;orthogonalLoop=1;jettySize=auto;html=1;" edge="1" parent="1" source="07pAsyxVvloNR7hStDU4-19" target="07pAsyxVvloNR7hStDU4-27">
          <mxGeometry relative="1" as="geometry" />
        </mxCell>
        <mxCell id="07pAsyxVvloNR7hStDU4-19" value="Triangle List" style="whiteSpace=wrap;html=1;rounded=0;fillColor=#fff2cc;strokeColor=#d6b656;" vertex="1" parent="1">
          <mxGeometry x="465" y="300" width="120" height="30" as="geometry" />
        </mxCell>
        <mxCell id="07pAsyxVvloNR7hStDU4-41" style="edgeStyle=orthogonalEdgeStyle;rounded=0;orthogonalLoop=1;jettySize=auto;html=1;entryX=1;entryY=0.5;entryDx=0;entryDy=0;" edge="1" parent="1" source="07pAsyxVvloNR7hStDU4-20" target="07pAsyxVvloNR7hStDU4-28">
          <mxGeometry relative="1" as="geometry" />
        </mxCell>
        <mxCell id="07pAsyxVvloNR7hStDU4-20" value="Object List" style="whiteSpace=wrap;html=1;rounded=0;fillColor=#fff2cc;strokeColor=#d6b656;" vertex="1" parent="1">
          <mxGeometry x="465" y="399" width="120" height="30" as="geometry" />
        </mxCell>
        <mxCell id="07pAsyxVvloNR7hStDU4-43" style="edgeStyle=orthogonalEdgeStyle;rounded=0;orthogonalLoop=1;jettySize=auto;html=1;entryX=1;entryY=0.5;entryDx=0;entryDy=0;" edge="1" parent="1" source="07pAsyxVvloNR7hStDU4-21" target="07pAsyxVvloNR7hStDU4-29">
          <mxGeometry relative="1" as="geometry" />
        </mxCell>
        <mxCell id="07pAsyxVvloNR7hStDU4-21" value="TexturesArray" style="whiteSpace=wrap;html=1;rounded=0;fillColor=#fff2cc;strokeColor=#d6b656;" vertex="1" parent="1">
          <mxGeometry x="465" y="500" width="120" height="30" as="geometry" />
        </mxCell>
        <mxCell id="07pAsyxVvloNR7hStDU4-44" style="edgeStyle=orthogonalEdgeStyle;rounded=0;orthogonalLoop=1;jettySize=auto;html=1;entryX=1;entryY=0.5;entryDx=0;entryDy=0;" edge="1" parent="1" source="07pAsyxVvloNR7hStDU4-22" target="07pAsyxVvloNR7hStDU4-30">
          <mxGeometry relative="1" as="geometry" />
        </mxCell>
        <mxCell id="07pAsyxVvloNR7hStDU4-22" value="Material List" style="whiteSpace=wrap;html=1;rounded=0;fillColor=#fff2cc;strokeColor=#d6b656;" vertex="1" parent="1">
          <mxGeometry x="465" y="545.5" width="120" height="30" as="geometry" />
        </mxCell>
        <mxCell id="07pAsyxVvloNR7hStDU4-39" style="edgeStyle=orthogonalEdgeStyle;rounded=0;orthogonalLoop=1;jettySize=auto;html=1;" edge="1" parent="1" source="07pAsyxVvloNR7hStDU4-23" target="07pAsyxVvloNR7hStDU4-31">
          <mxGeometry relative="1" as="geometry" />
        </mxCell>
        <mxCell id="07pAsyxVvloNR7hStDU4-23" value="Indice List" style="whiteSpace=wrap;html=1;rounded=0;fillColor=#fff2cc;strokeColor=#d6b656;" vertex="1" parent="1">
          <mxGeometry x="465" y="330" width="120" height="30" as="geometry" />
        </mxCell>
        <mxCell id="07pAsyxVvloNR7hStDU4-42" style="edgeStyle=orthogonalEdgeStyle;rounded=0;orthogonalLoop=1;jettySize=auto;html=1;entryX=1;entryY=0.5;entryDx=0;entryDy=0;" edge="1" parent="1" source="07pAsyxVvloNR7hStDU4-24" target="07pAsyxVvloNR7hStDU4-32">
          <mxGeometry relative="1" as="geometry" />
        </mxCell>
        <mxCell id="07pAsyxVvloNR7hStDU4-24" value="BVHNodes List" style="whiteSpace=wrap;html=1;rounded=0;fillColor=#fff2cc;strokeColor=#d6b656;" vertex="1" parent="1">
          <mxGeometry x="465" y="450" width="120" height="30" as="geometry" />
        </mxCell>
        <mxCell id="07pAsyxVvloNR7hStDU4-25" value="Vertices Buffer" style="whiteSpace=wrap;html=1;rounded=0;fillColor=#dae8fc;strokeColor=#6c8ebf;" vertex="1" parent="1">
          <mxGeometry x="220" y="240" width="120" height="30" as="geometry" />
        </mxCell>
        <mxCell id="07pAsyxVvloNR7hStDU4-26" value="UV Buffer" style="whiteSpace=wrap;html=1;rounded=0;fillColor=#dae8fc;strokeColor=#6c8ebf;" vertex="1" parent="1">
          <mxGeometry x="220" y="270" width="120" height="30" as="geometry" />
        </mxCell>
        <mxCell id="07pAsyxVvloNR7hStDU4-27" value="Triangle Buffer" style="whiteSpace=wrap;html=1;rounded=0;fillColor=#dae8fc;strokeColor=#6c8ebf;" vertex="1" parent="1">
          <mxGeometry x="220" y="300" width="120" height="30" as="geometry" />
        </mxCell>
        <mxCell id="07pAsyxVvloNR7hStDU4-28" value="Object Buffer" style="whiteSpace=wrap;html=1;rounded=0;fillColor=#dae8fc;strokeColor=#6c8ebf;" vertex="1" parent="1">
          <mxGeometry x="220" y="399" width="120" height="30" as="geometry" />
        </mxCell>
        <mxCell id="07pAsyxVvloNR7hStDU4-29" value="TexturesArray" style="whiteSpace=wrap;html=1;rounded=0;fillColor=#dae8fc;strokeColor=#6c8ebf;" vertex="1" parent="1">
          <mxGeometry x="220" y="500" width="120" height="30" as="geometry" />
        </mxCell>
        <mxCell id="07pAsyxVvloNR7hStDU4-30" value="Material Buffer" style="whiteSpace=wrap;html=1;rounded=0;fillColor=#dae8fc;strokeColor=#6c8ebf;" vertex="1" parent="1">
          <mxGeometry x="220" y="545.5" width="120" height="30" as="geometry" />
        </mxCell>
        <mxCell id="07pAsyxVvloNR7hStDU4-31" value="Indice Buffer" style="whiteSpace=wrap;html=1;rounded=0;fillColor=#dae8fc;strokeColor=#6c8ebf;" vertex="1" parent="1">
          <mxGeometry x="220" y="330" width="120" height="30" as="geometry" />
        </mxCell>
        <mxCell id="07pAsyxVvloNR7hStDU4-32" value="BVHNodes Buffer" style="whiteSpace=wrap;html=1;rounded=0;fillColor=#dae8fc;strokeColor=#6c8ebf;" vertex="1" parent="1">
          <mxGeometry x="220" y="450" width="120" height="30" as="geometry" />
        </mxCell>
        <mxCell id="07pAsyxVvloNR7hStDU4-40" style="edgeStyle=orthogonalEdgeStyle;rounded=0;orthogonalLoop=1;jettySize=auto;html=1;entryX=1;entryY=0.5;entryDx=0;entryDy=0;" edge="1" parent="1" source="07pAsyxVvloNR7hStDU4-33" target="07pAsyxVvloNR7hStDU4-34">
          <mxGeometry relative="1" as="geometry" />
        </mxCell>
        <mxCell id="07pAsyxVvloNR7hStDU4-33" value="Normal List" style="whiteSpace=wrap;html=1;rounded=0;fillColor=#fff2cc;strokeColor=#d6b656;" vertex="1" parent="1">
          <mxGeometry x="465" y="360" width="120" height="30" as="geometry" />
        </mxCell>
        <mxCell id="07pAsyxVvloNR7hStDU4-34" value="Normal Buffer" style="whiteSpace=wrap;html=1;rounded=0;fillColor=#dae8fc;strokeColor=#6c8ebf;" vertex="1" parent="1">
          <mxGeometry x="220" y="360" width="120" height="30" as="geometry" />
        </mxCell>
        <mxCell id="07pAsyxVvloNR7hStDU4-52" style="edgeStyle=orthogonalEdgeStyle;rounded=0;orthogonalLoop=1;jettySize=auto;html=1;exitX=0.75;exitY=1;exitDx=0;exitDy=0;entryX=0.75;entryY=0.817;entryDx=0;entryDy=0;entryPerimeter=0;" edge="1" parent="1" source="07pAsyxVvloNR7hStDU4-22" target="07pAsyxVvloNR7hStDU4-22">
          <mxGeometry relative="1" as="geometry" />
        </mxCell>
        <mxCell id="07pAsyxVvloNR7hStDU4-58" style="edgeStyle=orthogonalEdgeStyle;rounded=0;orthogonalLoop=1;jettySize=auto;html=1;exitX=1;exitY=0.5;exitDx=0;exitDy=0;entryX=0;entryY=0.75;entryDx=0;entryDy=0;" edge="1" parent="1" source="07pAsyxVvloNR7hStDU4-53" target="07pAsyxVvloNR7hStDU4-54">
          <mxGeometry relative="1" as="geometry">
            <Array as="points">
              <mxPoint x="340" y="715" />
              <mxPoint x="340" y="673" />
            </Array>
          </mxGeometry>
        </mxCell>
        <mxCell id="07pAsyxVvloNR7hStDU4-59" style="edgeStyle=orthogonalEdgeStyle;rounded=0;orthogonalLoop=1;jettySize=auto;html=1;entryX=0;entryY=0.5;entryDx=0;entryDy=0;" edge="1" parent="1" source="07pAsyxVvloNR7hStDU4-53" target="07pAsyxVvloNR7hStDU4-55">
          <mxGeometry relative="1" as="geometry">
            <Array as="points">
              <mxPoint x="340" y="715" />
              <mxPoint x="340" y="785" />
            </Array>
          </mxGeometry>
        </mxCell>
        <mxCell id="07pAsyxVvloNR7hStDU4-66" style="edgeStyle=orthogonalEdgeStyle;rounded=0;orthogonalLoop=1;jettySize=auto;html=1;entryX=0;entryY=0.5;entryDx=0;entryDy=0;" edge="1" parent="1" source="07pAsyxVvloNR7hStDU4-53" target="07pAsyxVvloNR7hStDU4-64">
          <mxGeometry relative="1" as="geometry">
            <Array as="points">
              <mxPoint x="340" y="715" />
              <mxPoint x="340" y="885" />
            </Array>
          </mxGeometry>
        </mxCell>
        <mxCell id="07pAsyxVvloNR7hStDU4-53" value="Triangle" style="whiteSpace=wrap;html=1;rounded=0;fillColor=#fff2cc;strokeColor=#d6b656;" vertex="1" parent="1">
          <mxGeometry x="180" y="700" width="120" height="30" as="geometry" />
        </mxCell>
        <mxCell id="07pAsyxVvloNR7hStDU4-69" style="edgeStyle=orthogonalEdgeStyle;rounded=0;orthogonalLoop=1;jettySize=auto;html=1;entryX=0;entryY=0.5;entryDx=0;entryDy=0;" edge="1" parent="1" source="07pAsyxVvloNR7hStDU4-54" target="07pAsyxVvloNR7hStDU4-61">
          <mxGeometry relative="1" as="geometry" />
        </mxCell>
        <mxCell id="07pAsyxVvloNR7hStDU4-70" style="edgeStyle=orthogonalEdgeStyle;rounded=0;orthogonalLoop=1;jettySize=auto;html=1;entryX=0;entryY=0.5;entryDx=0;entryDy=0;" edge="1" parent="1" source="07pAsyxVvloNR7hStDU4-54" target="07pAsyxVvloNR7hStDU4-56">
          <mxGeometry relative="1" as="geometry" />
        </mxCell>
        <mxCell id="07pAsyxVvloNR7hStDU4-71" style="edgeStyle=orthogonalEdgeStyle;rounded=0;orthogonalLoop=1;jettySize=auto;html=1;entryX=0;entryY=0.5;entryDx=0;entryDy=0;" edge="1" parent="1" source="07pAsyxVvloNR7hStDU4-54" target="07pAsyxVvloNR7hStDU4-62">
          <mxGeometry relative="1" as="geometry" />
        </mxCell>
        <mxCell id="07pAsyxVvloNR7hStDU4-54" value="Three Vertices Indices" style="whiteSpace=wrap;html=1;rounded=0;" vertex="1" parent="1">
          <mxGeometry x="370" y="650" width="180" height="30" as="geometry" />
        </mxCell>
        <mxCell id="07pAsyxVvloNR7hStDU4-67" style="edgeStyle=orthogonalEdgeStyle;rounded=0;orthogonalLoop=1;jettySize=auto;html=1;entryX=0;entryY=0.5;entryDx=0;entryDy=0;" edge="1" parent="1" source="07pAsyxVvloNR7hStDU4-55" target="07pAsyxVvloNR7hStDU4-63">
          <mxGeometry relative="1" as="geometry" />
        </mxCell>
        <mxCell id="07pAsyxVvloNR7hStDU4-55" value="Object ID" style="whiteSpace=wrap;html=1;rounded=0;" vertex="1" parent="1">
          <mxGeometry x="370" y="770" width="190" height="30" as="geometry" />
        </mxCell>
        <mxCell id="07pAsyxVvloNR7hStDU4-77" style="edgeStyle=orthogonalEdgeStyle;rounded=0;orthogonalLoop=1;jettySize=auto;html=1;" edge="1" parent="1" source="07pAsyxVvloNR7hStDU4-56" target="07pAsyxVvloNR7hStDU4-74">
          <mxGeometry relative="1" as="geometry" />
        </mxCell>
        <mxCell id="07pAsyxVvloNR7hStDU4-56" value="Vertex Buffer [indice]" style="whiteSpace=wrap;html=1;rounded=0;fillColor=#dae8fc;strokeColor=#6c8ebf;" vertex="1" parent="1">
          <mxGeometry x="610" y="620" width="180" height="30" as="geometry" />
        </mxCell>
        <mxCell id="07pAsyxVvloNR7hStDU4-78" style="edgeStyle=orthogonalEdgeStyle;rounded=0;orthogonalLoop=1;jettySize=auto;html=1;" edge="1" parent="1" source="07pAsyxVvloNR7hStDU4-61" target="07pAsyxVvloNR7hStDU4-75">
          <mxGeometry relative="1" as="geometry" />
        </mxCell>
        <mxCell id="07pAsyxVvloNR7hStDU4-61" value="Normal Buffer [indice]" style="whiteSpace=wrap;html=1;rounded=0;fillColor=#d5e8d4;strokeColor=#82b366;" vertex="1" parent="1">
          <mxGeometry x="610" y="660" width="180" height="30" as="geometry" />
        </mxCell>
        <mxCell id="07pAsyxVvloNR7hStDU4-79" style="edgeStyle=orthogonalEdgeStyle;rounded=0;orthogonalLoop=1;jettySize=auto;html=1;entryX=0;entryY=0.5;entryDx=0;entryDy=0;" edge="1" parent="1" source="07pAsyxVvloNR7hStDU4-62" target="07pAsyxVvloNR7hStDU4-76">
          <mxGeometry relative="1" as="geometry" />
        </mxCell>
        <mxCell id="07pAsyxVvloNR7hStDU4-62" value="UV Buffer [indice]" style="whiteSpace=wrap;html=1;rounded=0;fillColor=#f8cecc;strokeColor=#b85450;" vertex="1" parent="1">
          <mxGeometry x="610" y="700" width="180" height="30" as="geometry" />
        </mxCell>
        <mxCell id="07pAsyxVvloNR7hStDU4-80" style="edgeStyle=orthogonalEdgeStyle;rounded=0;orthogonalLoop=1;jettySize=auto;html=1;entryX=0;entryY=0.5;entryDx=0;entryDy=0;" edge="1" parent="1" source="07pAsyxVvloNR7hStDU4-63" target="07pAsyxVvloNR7hStDU4-73">
          <mxGeometry relative="1" as="geometry" />
        </mxCell>
        <mxCell id="07pAsyxVvloNR7hStDU4-63" value="Object Buffer [objID]" style="whiteSpace=wrap;html=1;rounded=0;fillColor=#ffe6cc;strokeColor=#d79b00;" vertex="1" parent="1">
          <mxGeometry x="610" y="770" width="180" height="30" as="geometry" />
        </mxCell>
        <mxCell id="07pAsyxVvloNR7hStDU4-72" style="edgeStyle=orthogonalEdgeStyle;rounded=0;orthogonalLoop=1;jettySize=auto;html=1;entryX=0;entryY=0.5;entryDx=0;entryDy=0;" edge="1" parent="1" source="07pAsyxVvloNR7hStDU4-64" target="07pAsyxVvloNR7hStDU4-65">
          <mxGeometry relative="1" as="geometry" />
        </mxCell>
        <mxCell id="07pAsyxVvloNR7hStDU4-64" value="Material ID" style="whiteSpace=wrap;html=1;rounded=0;" vertex="1" parent="1">
          <mxGeometry x="375" y="870" width="180" height="30" as="geometry" />
        </mxCell>
        <mxCell id="07pAsyxVvloNR7hStDU4-65" value="Material Buffer [matID]" style="whiteSpace=wrap;html=1;rounded=0;fillColor=#f5f5f5;fontColor=#333333;strokeColor=#666666;" vertex="1" parent="1">
          <mxGeometry x="610" y="870" width="180" height="30" as="geometry" />
        </mxCell>
        <mxCell id="07pAsyxVvloNR7hStDU4-73" value="LocalToWorld Matrix" style="whiteSpace=wrap;html=1;rounded=0;" vertex="1" parent="1">
          <mxGeometry x="840" y="770" width="180" height="30" as="geometry" />
        </mxCell>
        <mxCell id="07pAsyxVvloNR7hStDU4-74" value="Vertex local Position" style="whiteSpace=wrap;html=1;rounded=0;" vertex="1" parent="1">
          <mxGeometry x="840" y="620" width="180" height="30" as="geometry" />
        </mxCell>
        <mxCell id="07pAsyxVvloNR7hStDU4-75" value="Vertex local Normal" style="whiteSpace=wrap;html=1;rounded=0;" vertex="1" parent="1">
          <mxGeometry x="840" y="660" width="180" height="30" as="geometry" />
        </mxCell>
        <mxCell id="07pAsyxVvloNR7hStDU4-76" value="Vertex local UV" style="whiteSpace=wrap;html=1;rounded=0;" vertex="1" parent="1">
          <mxGeometry x="840" y="700" width="180" height="30" as="geometry" />
        </mxCell>
        <mxCell id="07pAsyxVvloNR7hStDU4-84" value="" style="edgeStyle=orthogonalEdgeStyle;rounded=0;orthogonalLoop=1;jettySize=auto;html=1;" edge="1" parent="1" target="07pAsyxVvloNR7hStDU4-83">
          <mxGeometry relative="1" as="geometry">
            <mxPoint x="790" y="885" as="sourcePoint" />
            <Array as="points">
              <mxPoint x="790" y="886" />
              <mxPoint x="820" y="886" />
              <mxPoint x="820" y="865" />
            </Array>
          </mxGeometry>
        </mxCell>
        <mxCell id="07pAsyxVvloNR7hStDU4-86" style="edgeStyle=orthogonalEdgeStyle;rounded=0;orthogonalLoop=1;jettySize=auto;html=1;entryX=0;entryY=0.5;entryDx=0;entryDy=0;" edge="1" parent="1" target="07pAsyxVvloNR7hStDU4-85">
          <mxGeometry relative="1" as="geometry">
            <mxPoint x="790" y="885" as="sourcePoint" />
            <Array as="points">
              <mxPoint x="790" y="886" />
              <mxPoint x="820" y="886" />
              <mxPoint x="820" y="925" />
            </Array>
          </mxGeometry>
        </mxCell>
        <mxCell id="07pAsyxVvloNR7hStDU4-88" style="edgeStyle=orthogonalEdgeStyle;rounded=0;orthogonalLoop=1;jettySize=auto;html=1;entryX=0;entryY=0.5;entryDx=0;entryDy=0;" edge="1" parent="1" source="07pAsyxVvloNR7hStDU4-83" target="07pAsyxVvloNR7hStDU4-87">
          <mxGeometry relative="1" as="geometry" />
        </mxCell>
        <mxCell id="07pAsyxVvloNR7hStDU4-83" value="texture ID" style="whiteSpace=wrap;html=1;rounded=0;" vertex="1" parent="1">
          <mxGeometry x="840" y="850" width="180" height="30" as="geometry" />
        </mxCell>
        <mxCell id="07pAsyxVvloNR7hStDU4-85" value="alberdo/ smoothness/emission" style="whiteSpace=wrap;html=1;rounded=0;" vertex="1" parent="1">
          <mxGeometry x="840" y="910" width="180" height="30" as="geometry" />
        </mxCell>
        <mxCell id="07pAsyxVvloNR7hStDU4-87" value="Texture Array [texID]" style="whiteSpace=wrap;html=1;rounded=0;fillColor=#DED9E7;strokeColor=#9673a6;" vertex="1" parent="1">
          <mxGeometry x="1050" y="850" width="180" height="30" as="geometry" />
        </mxCell>
        <mxCell id="07pAsyxVvloNR7hStDU4-89" value="BVHNode (root)" style="whiteSpace=wrap;html=1;rounded=0;fillColor=#f8cecc;strokeColor=#b85450;" vertex="1" parent="1">
          <mxGeometry x="280" y="1170" width="120" height="30" as="geometry" />
        </mxCell>
        <mxCell id="07pAsyxVvloNR7hStDU4-90" value="BVHNode Leaf" style="whiteSpace=wrap;html=1;rounded=0;fillColor=#d5e8d4;strokeColor=#82b366;" vertex="1" parent="1">
          <mxGeometry x="450" y="1250" width="120" height="30" as="geometry" />
        </mxCell>
        <mxCell id="07pAsyxVvloNR7hStDU4-96" value="left" style="rounded=0;orthogonalLoop=1;jettySize=auto;html=1;entryX=0;entryY=0.5;entryDx=0;entryDy=0;exitX=1;exitY=0.5;exitDx=0;exitDy=0;" edge="1" parent="1" source="07pAsyxVvloNR7hStDU4-91" target="07pAsyxVvloNR7hStDU4-92">
          <mxGeometry relative="1" as="geometry" />
        </mxCell>
        <mxCell id="07pAsyxVvloNR7hStDU4-98" value="right" style="rounded=0;orthogonalLoop=1;jettySize=auto;html=1;entryX=0;entryY=0.5;entryDx=0;entryDy=0;exitX=1;exitY=0.5;exitDx=0;exitDy=0;" edge="1" parent="1" source="07pAsyxVvloNR7hStDU4-91" target="07pAsyxVvloNR7hStDU4-93">
          <mxGeometry relative="1" as="geometry" />
        </mxCell>
        <mxCell id="07pAsyxVvloNR7hStDU4-91" value="BVHNode Leaf" style="whiteSpace=wrap;html=1;rounded=0;fillColor=#d5e8d4;strokeColor=#82b366;" vertex="1" parent="1">
          <mxGeometry x="450" y="1120" width="120" height="30" as="geometry" />
        </mxCell>
        <mxCell id="07pAsyxVvloNR7hStDU4-104" style="rounded=0;orthogonalLoop=1;jettySize=auto;html=1;entryX=0;entryY=0.75;entryDx=0;entryDy=0;exitX=1;exitY=0.5;exitDx=0;exitDy=0;" edge="1" parent="1" source="07pAsyxVvloNR7hStDU4-92" target="07pAsyxVvloNR7hStDU4-103">
          <mxGeometry relative="1" as="geometry" />
        </mxCell>
        <mxCell id="07pAsyxVvloNR7hStDU4-106" style="rounded=0;orthogonalLoop=1;jettySize=auto;html=1;exitX=1;exitY=0.5;exitDx=0;exitDy=0;" edge="1" parent="1" source="07pAsyxVvloNR7hStDU4-92" target="07pAsyxVvloNR7hStDU4-105">
          <mxGeometry relative="1" as="geometry" />
        </mxCell>
        <mxCell id="07pAsyxVvloNR7hStDU4-111" style="rounded=0;orthogonalLoop=1;jettySize=auto;html=1;entryX=0;entryY=0.5;entryDx=0;entryDy=0;exitX=1;exitY=0.5;exitDx=0;exitDy=0;" edge="1" parent="1" source="07pAsyxVvloNR7hStDU4-92" target="07pAsyxVvloNR7hStDU4-107">
          <mxGeometry relative="1" as="geometry" />
        </mxCell>
        <mxCell id="07pAsyxVvloNR7hStDU4-92" value="BVHNode Leaf" style="whiteSpace=wrap;html=1;rounded=0;fillColor=#d5e8d4;strokeColor=#82b366;" vertex="1" parent="1">
          <mxGeometry x="650" y="1090" width="120" height="30" as="geometry" />
        </mxCell>
        <mxCell id="07pAsyxVvloNR7hStDU4-93" value="BVHNode Leaf" style="whiteSpace=wrap;html=1;rounded=0;fillColor=#d5e8d4;strokeColor=#82b366;" vertex="1" parent="1">
          <mxGeometry x="650" y="1160" width="120" height="30" as="geometry" />
        </mxCell>
        <mxCell id="07pAsyxVvloNR7hStDU4-94" value="BVHNode Leaf" style="whiteSpace=wrap;html=1;rounded=0;fillColor=#d5e8d4;strokeColor=#82b366;" vertex="1" parent="1">
          <mxGeometry x="650" y="1230" width="120" height="30" as="geometry" />
        </mxCell>
        <mxCell id="07pAsyxVvloNR7hStDU4-95" value="BVHNode Leaf" style="whiteSpace=wrap;html=1;rounded=0;fillColor=#d5e8d4;strokeColor=#82b366;" vertex="1" parent="1">
          <mxGeometry x="655" y="1300" width="120" height="30" as="geometry" />
        </mxCell>
        <mxCell id="07pAsyxVvloNR7hStDU4-97" value="left" style="rounded=0;orthogonalLoop=1;jettySize=auto;html=1;entryX=0;entryY=0.5;entryDx=0;entryDy=0;exitX=1;exitY=0.5;exitDx=0;exitDy=0;" edge="1" parent="1" source="07pAsyxVvloNR7hStDU4-90" target="07pAsyxVvloNR7hStDU4-94">
          <mxGeometry relative="1" as="geometry">
            <mxPoint x="580" y="1145" as="sourcePoint" />
            <mxPoint x="650" y="1085" as="targetPoint" />
          </mxGeometry>
        </mxCell>
        <mxCell id="07pAsyxVvloNR7hStDU4-99" value="right" style="rounded=0;orthogonalLoop=1;jettySize=auto;html=1;exitX=1;exitY=0.5;exitDx=0;exitDy=0;entryX=0;entryY=0.5;entryDx=0;entryDy=0;" edge="1" parent="1" target="07pAsyxVvloNR7hStDU4-95">
          <mxGeometry relative="1" as="geometry">
            <mxPoint x="570" y="1266" as="sourcePoint" />
            <mxPoint x="650" y="1330" as="targetPoint" />
          </mxGeometry>
        </mxCell>
        <mxCell id="07pAsyxVvloNR7hStDU4-100" value="left" style="rounded=0;orthogonalLoop=1;jettySize=auto;html=1;entryX=0;entryY=0.75;entryDx=0;entryDy=0;exitX=1;exitY=0.5;exitDx=0;exitDy=0;" edge="1" parent="1" target="07pAsyxVvloNR7hStDU4-91">
          <mxGeometry relative="1" as="geometry">
            <mxPoint x="400" y="1180" as="sourcePoint" />
            <mxPoint x="470" y="1120" as="targetPoint" />
          </mxGeometry>
        </mxCell>
        <mxCell id="07pAsyxVvloNR7hStDU4-101" value="left" style="rounded=0;orthogonalLoop=1;jettySize=auto;html=1;entryX=0;entryY=0.5;entryDx=0;entryDy=0;" edge="1" parent="1" target="07pAsyxVvloNR7hStDU4-90">
          <mxGeometry relative="1" as="geometry">
            <mxPoint x="400" y="1180" as="sourcePoint" />
            <mxPoint x="460" y="1153" as="targetPoint" />
          </mxGeometry>
        </mxCell>
        <mxCell id="07pAsyxVvloNR7hStDU4-103" value="Triangles" style="whiteSpace=wrap;html=1;rounded=0;fillColor=#fff2cc;strokeColor=#d6b656;" vertex="1" parent="1">
          <mxGeometry x="830" y="1060" width="120" height="30" as="geometry" />
        </mxCell>
        <mxCell id="07pAsyxVvloNR7hStDU4-105" value="Triangles" style="whiteSpace=wrap;html=1;rounded=0;fillColor=#fff2cc;strokeColor=#d6b656;" vertex="1" parent="1">
          <mxGeometry x="830" y="1110" width="120" height="30" as="geometry" />
        </mxCell>
        <mxCell id="07pAsyxVvloNR7hStDU4-107" value="Triangles" style="whiteSpace=wrap;html=1;rounded=0;fillColor=#fff2cc;strokeColor=#d6b656;" vertex="1" parent="1">
          <mxGeometry x="830" y="1170" width="120" height="30" as="geometry" />
        </mxCell>
        <mxCell id="07pAsyxVvloNR7hStDU4-108" value="Triangles" style="whiteSpace=wrap;html=1;rounded=0;fillColor=#fff2cc;strokeColor=#d6b656;" vertex="1" parent="1">
          <mxGeometry x="830" y="1230" width="120" height="30" as="geometry" />
        </mxCell>
        <mxCell id="07pAsyxVvloNR7hStDU4-109" value="Triangles" style="whiteSpace=wrap;html=1;rounded=0;fillColor=#fff2cc;strokeColor=#d6b656;" vertex="1" parent="1">
          <mxGeometry x="830" y="1290" width="120" height="30" as="geometry" />
        </mxCell>
        <mxCell id="07pAsyxVvloNR7hStDU4-112" style="rounded=0;orthogonalLoop=1;jettySize=auto;html=1;entryX=0;entryY=0.5;entryDx=0;entryDy=0;exitX=1;exitY=0.5;exitDx=0;exitDy=0;" edge="1" parent="1" source="07pAsyxVvloNR7hStDU4-94" target="07pAsyxVvloNR7hStDU4-108">
          <mxGeometry relative="1" as="geometry">
            <mxPoint x="770" y="1170" as="sourcePoint" />
            <mxPoint x="840" y="1093" as="targetPoint" />
          </mxGeometry>
        </mxCell>
        <mxCell id="07pAsyxVvloNR7hStDU4-113" style="rounded=0;orthogonalLoop=1;jettySize=auto;html=1;entryX=0;entryY=0.5;entryDx=0;entryDy=0;" edge="1" parent="1" target="07pAsyxVvloNR7hStDU4-109">
          <mxGeometry relative="1" as="geometry">
            <mxPoint x="770" y="1170" as="sourcePoint" />
            <mxPoint x="840" y="1125" as="targetPoint" />
          </mxGeometry>
        </mxCell>
        <mxCell id="07pAsyxVvloNR7hStDU4-114" style="rounded=0;orthogonalLoop=1;jettySize=auto;html=1;entryX=0;entryY=0.5;entryDx=0;entryDy=0;" edge="1" parent="1" target="07pAsyxVvloNR7hStDU4-115">
          <mxGeometry relative="1" as="geometry">
            <mxPoint x="770" y="1170" as="sourcePoint" />
            <mxPoint x="840" y="1195" as="targetPoint" />
          </mxGeometry>
        </mxCell>
        <mxCell id="07pAsyxVvloNR7hStDU4-115" value="Triangles" style="whiteSpace=wrap;html=1;rounded=0;fillColor=#fff2cc;strokeColor=#d6b656;" vertex="1" parent="1">
          <mxGeometry x="830" y="1350.5" width="120" height="30" as="geometry" />
        </mxCell>
        <mxCell id="07pAsyxVvloNR7hStDU4-116" value="Triangles" style="whiteSpace=wrap;html=1;rounded=0;fillColor=#fff2cc;strokeColor=#d6b656;" vertex="1" parent="1">
          <mxGeometry x="830" y="1410.5" width="120" height="30" as="geometry" />
        </mxCell>
        <mxCell id="07pAsyxVvloNR7hStDU4-117" style="rounded=0;orthogonalLoop=1;jettySize=auto;html=1;entryX=0;entryY=0.5;entryDx=0;entryDy=0;" edge="1" parent="1" target="07pAsyxVvloNR7hStDU4-116">
          <mxGeometry relative="1" as="geometry">
            <mxPoint x="775" y="1310" as="sourcePoint" />
            <mxPoint x="835" y="1506" as="targetPoint" />
          </mxGeometry>
        </mxCell>
        <mxCell id="07pAsyxVvloNR7hStDU4-134" value="" style="edgeStyle=orthogonalEdgeStyle;rounded=0;orthogonalLoop=1;jettySize=auto;html=1;" edge="1" parent="1" source="07pAsyxVvloNR7hStDU4-118" target="07pAsyxVvloNR7hStDU4-133">
          <mxGeometry relative="1" as="geometry" />
        </mxCell>
        <mxCell id="07pAsyxVvloNR7hStDU4-118" value="Compute Shader" style="rounded=0;whiteSpace=wrap;html=1;fillColor=#dae8fc;strokeColor=#6c8ebf;" vertex="1" parent="1">
          <mxGeometry x="1450.45" y="140" width="120" height="60" as="geometry" />
        </mxCell>
        <mxCell id="07pAsyxVvloNR7hStDU4-124" value="" style="edgeStyle=orthogonalEdgeStyle;rounded=0;orthogonalLoop=1;jettySize=auto;html=1;" edge="1" parent="1" source="07pAsyxVvloNR7hStDU4-119" target="07pAsyxVvloNR7hStDU4-123">
          <mxGeometry relative="1" as="geometry" />
        </mxCell>
        <mxCell id="07pAsyxVvloNR7hStDU4-119" value="RayTracing Master" style="rounded=0;whiteSpace=wrap;html=1;fillColor=#fff2cc;strokeColor=#d6b656;" vertex="1" parent="1">
          <mxGeometry x="1695.45" y="140" width="120" height="60" as="geometry" />
        </mxCell>
        <mxCell id="07pAsyxVvloNR7hStDU4-129" value="" style="edgeStyle=orthogonalEdgeStyle;rounded=0;orthogonalLoop=1;jettySize=auto;html=1;" edge="1" parent="1" source="07pAsyxVvloNR7hStDU4-120" target="07pAsyxVvloNR7hStDU4-128">
          <mxGeometry relative="1" as="geometry" />
        </mxCell>
        <mxCell id="07pAsyxVvloNR7hStDU4-120" value="RayTracing Object" style="rounded=0;whiteSpace=wrap;html=1;" vertex="1" parent="1">
          <mxGeometry x="2060.45" y="140" width="120" height="60" as="geometry" />
        </mxCell>
        <mxCell id="07pAsyxVvloNR7hStDU4-125" value="no" style="edgeStyle=orthogonalEdgeStyle;rounded=0;orthogonalLoop=1;jettySize=auto;html=1;entryX=0.562;entryY=0.013;entryDx=0;entryDy=0;entryPerimeter=0;" edge="1" parent="1" source="07pAsyxVvloNR7hStDU4-123" target="07pAsyxVvloNR7hStDU4-123">
          <mxGeometry relative="1" as="geometry">
            <mxPoint x="1860.45" y="270" as="targetPoint" />
            <Array as="points">
              <mxPoint x="1930.45" y="345" />
              <mxPoint x="1930.45" y="306" />
            </Array>
          </mxGeometry>
        </mxCell>
        <mxCell id="07pAsyxVvloNR7hStDU4-127" value="yes" style="edgeStyle=orthogonalEdgeStyle;rounded=0;orthogonalLoop=1;jettySize=auto;html=1;" edge="1" parent="1" source="07pAsyxVvloNR7hStDU4-123" target="07pAsyxVvloNR7hStDU4-126">
          <mxGeometry relative="1" as="geometry" />
        </mxCell>
        <mxCell id="07pAsyxVvloNR7hStDU4-123" value="check if need rebuild BVH and buffer" style="rhombus;whiteSpace=wrap;html=1;fillColor=#fff2cc;strokeColor=#d6b656;rounded=0;" vertex="1" parent="1">
          <mxGeometry x="1682.95" y="305" width="145" height="80" as="geometry" />
        </mxCell>
        <mxCell id="07pAsyxVvloNR7hStDU4-132" value="" style="edgeStyle=orthogonalEdgeStyle;rounded=0;orthogonalLoop=1;jettySize=auto;html=1;" edge="1" parent="1" source="07pAsyxVvloNR7hStDU4-126" target="07pAsyxVvloNR7hStDU4-131">
          <mxGeometry relative="1" as="geometry" />
        </mxCell>
        <mxCell id="07pAsyxVvloNR7hStDU4-126" value="get all triangles" style="whiteSpace=wrap;html=1;fillColor=#fff2cc;strokeColor=#d6b656;rounded=0;" vertex="1" parent="1">
          <mxGeometry x="1695.45" y="475" width="120" height="60" as="geometry" />
        </mxCell>
        <mxCell id="07pAsyxVvloNR7hStDU4-130" style="edgeStyle=orthogonalEdgeStyle;rounded=0;orthogonalLoop=1;jettySize=auto;html=1;entryX=0.576;entryY=0.988;entryDx=0;entryDy=0;entryPerimeter=0;" edge="1" parent="1" source="07pAsyxVvloNR7hStDU4-128" target="07pAsyxVvloNR7hStDU4-123">
          <mxGeometry relative="1" as="geometry">
            <mxPoint x="1910.45" y="374" as="targetPoint" />
            <Array as="points">
              <mxPoint x="1766.45" y="390" />
            </Array>
          </mxGeometry>
        </mxCell>
        <mxCell id="07pAsyxVvloNR7hStDU4-128" value="if changed" style="rhombus;whiteSpace=wrap;html=1;rounded=0;" vertex="1" parent="1">
          <mxGeometry x="2080.45" y="334" width="80" height="80" as="geometry" />
        </mxCell>
        <mxCell id="07pAsyxVvloNR7hStDU4-152" style="edgeStyle=orthogonalEdgeStyle;rounded=0;orthogonalLoop=1;jettySize=auto;html=1;entryX=0.25;entryY=0;entryDx=0;entryDy=0;" edge="1" parent="1" source="07pAsyxVvloNR7hStDU4-131" target="07pAsyxVvloNR7hStDU4-143">
          <mxGeometry relative="1" as="geometry" />
        </mxCell>
        <mxCell id="07pAsyxVvloNR7hStDU4-131" value="Build BVH" style="whiteSpace=wrap;html=1;fillColor=#fff2cc;strokeColor=#d6b656;rounded=0;" vertex="1" parent="1">
          <mxGeometry x="1695.45" y="564" width="120" height="60" as="geometry" />
        </mxCell>
        <mxCell id="07pAsyxVvloNR7hStDU4-136" value="" style="edgeStyle=orthogonalEdgeStyle;rounded=0;orthogonalLoop=1;jettySize=auto;html=1;" edge="1" parent="1" source="07pAsyxVvloNR7hStDU4-133" target="07pAsyxVvloNR7hStDU4-135">
          <mxGeometry relative="1" as="geometry" />
        </mxCell>
        <mxCell id="07pAsyxVvloNR7hStDU4-133" value="for each pixel shoot 8 rays" style="whiteSpace=wrap;html=1;fillColor=#dae8fc;strokeColor=#6c8ebf;rounded=0;" vertex="1" parent="1">
          <mxGeometry x="1450.45" y="280" width="120" height="60" as="geometry" />
        </mxCell>
        <mxCell id="07pAsyxVvloNR7hStDU4-138" value="loop until hit triangles node" style="edgeStyle=orthogonalEdgeStyle;rounded=0;orthogonalLoop=1;jettySize=auto;html=1;" edge="1" parent="1" source="07pAsyxVvloNR7hStDU4-135" target="07pAsyxVvloNR7hStDU4-137">
          <mxGeometry relative="1" as="geometry" />
        </mxCell>
        <mxCell id="07pAsyxVvloNR7hStDU4-135" value="Do AABB Hit for BVH" style="whiteSpace=wrap;html=1;fillColor=#dae8fc;strokeColor=#6c8ebf;rounded=0;" vertex="1" parent="1">
          <mxGeometry x="1450.45" y="420" width="120" height="60" as="geometry" />
        </mxCell>
        <mxCell id="07pAsyxVvloNR7hStDU4-164" style="edgeStyle=orthogonalEdgeStyle;rounded=0;orthogonalLoop=1;jettySize=auto;html=1;entryX=0.5;entryY=0;entryDx=0;entryDy=0;" edge="1" parent="1" source="07pAsyxVvloNR7hStDU4-137" target="07pAsyxVvloNR7hStDU4-163">
          <mxGeometry relative="1" as="geometry" />
        </mxCell>
        <mxCell id="07pAsyxVvloNR7hStDU4-137" value="Do Triangle Hit" style="whiteSpace=wrap;html=1;fillColor=#dae8fc;strokeColor=#6c8ebf;rounded=0;" vertex="1" parent="1">
          <mxGeometry x="1450.45" y="545.5" width="120" height="60" as="geometry" />
        </mxCell>
        <mxCell id="07pAsyxVvloNR7hStDU4-141" value="" style="edgeStyle=orthogonalEdgeStyle;rounded=0;orthogonalLoop=1;jettySize=auto;html=1;" edge="1" parent="1" source="07pAsyxVvloNR7hStDU4-139" target="07pAsyxVvloNR7hStDU4-140">
          <mxGeometry relative="1" as="geometry" />
        </mxCell>
        <mxCell id="07pAsyxVvloNR7hStDU4-139" value="run SAH to make the best slice" style="whiteSpace=wrap;html=1;fillColor=#fff2cc;strokeColor=#d6b656;rounded=0;" vertex="1" parent="1">
          <mxGeometry x="1930.45" y="564" width="120" height="60" as="geometry" />
        </mxCell>
        <mxCell id="07pAsyxVvloNR7hStDU4-147" style="edgeStyle=orthogonalEdgeStyle;rounded=0;orthogonalLoop=1;jettySize=auto;html=1;entryX=0.5;entryY=0;entryDx=0;entryDy=0;" edge="1" parent="1" source="07pAsyxVvloNR7hStDU4-140" target="07pAsyxVvloNR7hStDU4-146">
          <mxGeometry relative="1" as="geometry" />
        </mxCell>
        <mxCell id="07pAsyxVvloNR7hStDU4-140" value="produce Left &amp;amp;r ight node" style="whiteSpace=wrap;html=1;fillColor=#fff2cc;strokeColor=#d6b656;rounded=0;" vertex="1" parent="1">
          <mxGeometry x="1930.45" y="660" width="120" height="60" as="geometry" />
        </mxCell>
        <mxCell id="07pAsyxVvloNR7hStDU4-144" value="" style="edgeStyle=orthogonalEdgeStyle;rounded=0;orthogonalLoop=1;jettySize=auto;html=1;" edge="1" parent="1" source="07pAsyxVvloNR7hStDU4-143" target="07pAsyxVvloNR7hStDU4-139">
          <mxGeometry relative="1" as="geometry" />
        </mxCell>
        <mxCell id="07pAsyxVvloNR7hStDU4-143" value="measure the triangles bounding box" style="whiteSpace=wrap;html=1;fillColor=#fff2cc;strokeColor=#d6b656;rounded=0;" vertex="1" parent="1">
          <mxGeometry x="1930.45" y="470" width="120" height="60" as="geometry" />
        </mxCell>
        <mxCell id="07pAsyxVvloNR7hStDU4-148" style="edgeStyle=orthogonalEdgeStyle;rounded=0;orthogonalLoop=1;jettySize=auto;html=1;entryX=0.5;entryY=0;entryDx=0;entryDy=0;" edge="1" parent="1" source="07pAsyxVvloNR7hStDU4-146" target="07pAsyxVvloNR7hStDU4-143">
          <mxGeometry relative="1" as="geometry">
            <Array as="points">
              <mxPoint x="2160.45" y="785" />
              <mxPoint x="2160.45" y="450" />
              <mxPoint x="1990.45" y="450" />
            </Array>
          </mxGeometry>
        </mxCell>
        <mxCell id="07pAsyxVvloNR7hStDU4-149" value="no" style="edgeLabel;html=1;align=center;verticalAlign=middle;resizable=0;points=[];" vertex="1" connectable="0" parent="07pAsyxVvloNR7hStDU4-148">
          <mxGeometry x="-0.2496" y="1" relative="1" as="geometry">
            <mxPoint as="offset" />
          </mxGeometry>
        </mxCell>
        <mxCell id="07pAsyxVvloNR7hStDU4-151" value="" style="edgeStyle=orthogonalEdgeStyle;rounded=0;orthogonalLoop=1;jettySize=auto;html=1;" edge="1" parent="1" source="07pAsyxVvloNR7hStDU4-146" target="07pAsyxVvloNR7hStDU4-150">
          <mxGeometry relative="1" as="geometry" />
        </mxCell>
        <mxCell id="07pAsyxVvloNR7hStDU4-146" value="if num triangles is less than 5 or depth is more than 60" style="rhombus;whiteSpace=wrap;html=1;" vertex="1" parent="1">
          <mxGeometry x="1905.45" y="755" width="175" height="60" as="geometry" />
        </mxCell>
        <mxCell id="07pAsyxVvloNR7hStDU4-153" style="edgeStyle=orthogonalEdgeStyle;rounded=0;orthogonalLoop=1;jettySize=auto;html=1;entryX=0.5;entryY=0;entryDx=0;entryDy=0;" edge="1" parent="1" source="07pAsyxVvloNR7hStDU4-150" target="07pAsyxVvloNR7hStDU4-154">
          <mxGeometry relative="1" as="geometry">
            <mxPoint x="1690.45" y="660" as="targetPoint" />
          </mxGeometry>
        </mxCell>
        <mxCell id="07pAsyxVvloNR7hStDU4-150" value="finish building" style="whiteSpace=wrap;html=1;" vertex="1" parent="1">
          <mxGeometry x="1932.95" y="855" width="120" height="35" as="geometry" />
        </mxCell>
        <mxCell id="07pAsyxVvloNR7hStDU4-156" value="" style="edgeStyle=orthogonalEdgeStyle;rounded=0;orthogonalLoop=1;jettySize=auto;html=1;" edge="1" parent="1" source="07pAsyxVvloNR7hStDU4-154" target="07pAsyxVvloNR7hStDU4-155">
          <mxGeometry relative="1" as="geometry" />
        </mxCell>
        <mxCell id="07pAsyxVvloNR7hStDU4-154" value="load compute buffer" style="whiteSpace=wrap;html=1;fillColor=#fff2cc;strokeColor=#d6b656;rounded=0;" vertex="1" parent="1">
          <mxGeometry x="1695.45" y="670" width="120" height="60" as="geometry" />
        </mxCell>
        <mxCell id="07pAsyxVvloNR7hStDU4-158" style="edgeStyle=orthogonalEdgeStyle;rounded=0;orthogonalLoop=1;jettySize=auto;html=1;entryX=1;entryY=0.5;entryDx=0;entryDy=0;" edge="1" parent="1" source="07pAsyxVvloNR7hStDU4-155" target="07pAsyxVvloNR7hStDU4-133">
          <mxGeometry relative="1" as="geometry">
            <mxPoint x="1650.45" y="240" as="targetPoint" />
          </mxGeometry>
        </mxCell>
        <mxCell id="07pAsyxVvloNR7hStDU4-155" value="send to compute buffer" style="whiteSpace=wrap;html=1;fillColor=#fff2cc;strokeColor=#d6b656;rounded=0;" vertex="1" parent="1">
          <mxGeometry x="1695.45" y="755" width="120" height="60" as="geometry" />
        </mxCell>
        <mxCell id="07pAsyxVvloNR7hStDU4-157" value="Write result to render texture show it on camera" style="whiteSpace=wrap;html=1;fillColor=#fff2cc;strokeColor=#d6b656;rounded=0;" vertex="1" parent="1">
          <mxGeometry x="1695.45" y="855" width="120" height="60" as="geometry" />
        </mxCell>
        <mxCell id="07pAsyxVvloNR7hStDU4-161" style="edgeStyle=orthogonalEdgeStyle;rounded=0;orthogonalLoop=1;jettySize=auto;html=1;entryX=0;entryY=0.5;entryDx=0;entryDy=0;" edge="1" parent="1" source="07pAsyxVvloNR7hStDU4-159" target="07pAsyxVvloNR7hStDU4-135">
          <mxGeometry relative="1" as="geometry">
            <mxPoint x="1350.45" y="680" as="targetPoint" />
            <Array as="points">
              <mxPoint x="1510.45" y="800" />
              <mxPoint x="1380.45" y="800" />
              <mxPoint x="1380.45" y="450" />
            </Array>
          </mxGeometry>
        </mxCell>
        <mxCell id="07pAsyxVvloNR7hStDU4-162" value="until enough bounce" style="edgeLabel;html=1;align=center;verticalAlign=middle;resizable=0;points=[];" vertex="1" connectable="0" parent="07pAsyxVvloNR7hStDU4-161">
          <mxGeometry x="-0.67" y="5" relative="1" as="geometry">
            <mxPoint x="-56" y="-181" as="offset" />
          </mxGeometry>
        </mxCell>
        <mxCell id="07pAsyxVvloNR7hStDU4-167" style="edgeStyle=orthogonalEdgeStyle;rounded=0;orthogonalLoop=1;jettySize=auto;html=1;" edge="1" parent="1" source="07pAsyxVvloNR7hStDU4-159">
          <mxGeometry relative="1" as="geometry">
            <mxPoint x="1510.45" y="830" as="targetPoint" />
          </mxGeometry>
        </mxCell>
        <mxCell id="07pAsyxVvloNR7hStDU4-159" value="Shading" style="whiteSpace=wrap;html=1;fillColor=#dae8fc;strokeColor=#6c8ebf;rounded=0;" vertex="1" parent="1">
          <mxGeometry x="1450.45" y="720" width="120" height="60" as="geometry" />
        </mxCell>
        <mxCell id="07pAsyxVvloNR7hStDU4-165" style="edgeStyle=orthogonalEdgeStyle;rounded=0;orthogonalLoop=1;jettySize=auto;html=1;" edge="1" parent="1" source="07pAsyxVvloNR7hStDU4-163" target="07pAsyxVvloNR7hStDU4-159">
          <mxGeometry relative="1" as="geometry" />
        </mxCell>
        <mxCell id="07pAsyxVvloNR7hStDU4-163" value="generate new ray direction/ get hit info" style="whiteSpace=wrap;html=1;fillColor=#dae8fc;strokeColor=#6c8ebf;rounded=0;" vertex="1" parent="1">
          <mxGeometry x="1450.45" y="630" width="120" height="60" as="geometry" />
        </mxCell>
        <mxCell id="07pAsyxVvloNR7hStDU4-170" value="" style="edgeStyle=orthogonalEdgeStyle;rounded=0;orthogonalLoop=1;jettySize=auto;html=1;" edge="1" parent="1" source="07pAsyxVvloNR7hStDU4-168" target="07pAsyxVvloNR7hStDU4-169">
          <mxGeometry relative="1" as="geometry" />
        </mxCell>
        <mxCell id="07pAsyxVvloNR7hStDU4-168" value="wirte accumulated value to pixel" style="whiteSpace=wrap;html=1;fillColor=#dae8fc;strokeColor=#6c8ebf;rounded=0;" vertex="1" parent="1">
          <mxGeometry x="1450.45" y="827" width="120" height="60" as="geometry" />
        </mxCell>
        <mxCell id="07pAsyxVvloNR7hStDU4-171" style="edgeStyle=orthogonalEdgeStyle;rounded=0;orthogonalLoop=1;jettySize=auto;html=1;entryX=0;entryY=0.5;entryDx=0;entryDy=0;" edge="1" parent="1" source="07pAsyxVvloNR7hStDU4-169" target="07pAsyxVvloNR7hStDU4-157">
          <mxGeometry relative="1" as="geometry" />
        </mxCell>
        <mxCell id="07pAsyxVvloNR7hStDU4-169" value="finish" style="whiteSpace=wrap;html=1;fillColor=#dae8fc;strokeColor=#6c8ebf;rounded=0;" vertex="1" parent="1">
          <mxGeometry x="1450.45" y="967" width="120" height="60" as="geometry" />
        </mxCell>
      </root>
    </mxGraphModel>
  </diagram>
</mxfile>
